<svg preserveAspectRatio="none" width="100%" height="100%" overflow="visible" style="display: block;" viewBox="0 0 13 13" fill="none" xmlns="http://www.w3.org/2000/svg">
<path id="Vector" d="M11.6667 3H5.66667M7.66667 9.66667H1.66667M7.66667 9.66667C7.66667 10.7712 8.5621 11.6667 9.66667 11.6667C10.7712 11.6667 11.6667 10.7712 11.6667 9.66667C11.6667 8.5621 10.7712 7.66667 9.66667 7.66667C8.5621 7.66667 7.66667 8.5621 7.66667 9.66667ZM5 3C5 4.10457 4.10457 5 3 5C1.89543 5 1 4.10457 1 3C1 1.89543 1.89543 1 3 1C4.10457 1 5 1.89543 5 3Z" stroke="var(--stroke-0, #09090B)" stroke-linecap="round" stroke-linejoin="round"/>
</svg>
