<svg preserveAspectRatio="none" width="100%" height="100%" overflow="visible" style="display: block;" viewBox="0 0 16 16" fill="none" xmlns="http://www.w3.org/2000/svg">
<g id="Frame">
<path id="Vector" d="M11.646 6.19067L10.2087 5.55267C9.104 5.062 8.22467 4.15533 7.75333 3.01867L7.20667 1.70267C7.10533 1.458 6.886 1.336 6.66667 1.336C6.44733 1.336 6.228 1.458 6.12667 1.70267L5.58067 3.01867C5.10867 4.15467 4.23 5.062 3.12467 5.55267L1.68733 6.19067C1.21533 6.4 1.21533 7.08667 1.68733 7.296L3.17133 7.95467C4.24867 8.43267 5.112 9.30733 5.592 10.4067L6.13133 11.6413C6.23467 11.8787 6.45067 11.9973 6.66667 11.9973C6.88267 11.9973 7.09867 11.8787 7.20267 11.6413L7.742 10.4067C8.222 9.308 9.08533 8.43267 10.1627 7.95467L11.6467 7.296C12.118 7.08667 12.118 6.4 11.646 6.19067ZM6.66667 9.56C6.034 8.30533 5.002 7.31333 3.728 6.74333C5.01533 6.154 6.04667 5.13733 6.66667 3.85333C7.28667 5.13733 8.318 6.154 9.60533 6.74267C8.33133 7.31267 7.29933 8.30533 6.66667 9.56ZM12.4753 14.0833L12.3107 14.46C12.1907 14.736 11.8087 14.736 11.688 14.46L11.5233 14.0833C11.23 13.4113 10.7027 12.8767 10.044 12.584L9.53733 12.3593C9.26333 12.238 9.26333 11.8393 9.53733 11.718L10.0153 11.5053C10.6907 11.2053 11.228 10.6507 11.516 9.956L11.6847 9.54867C11.802 9.26467 12.1947 9.26467 12.312 9.54867L12.4807 9.956C12.7687 10.6507 13.306 11.2053 13.9813 11.5053L14.4593 11.718C14.7333 11.8393 14.7333 12.238 14.4593 12.3593L13.9527 12.584C13.2967 12.8767 12.7687 13.4113 12.4753 14.0833Z" fill="var(--fill-0, black)"/>
</g>
</svg>
