<svg preserveAspectRatio="none" width="100%" height="100%" overflow="visible" style="display: block;" viewBox="0 0 12 12" fill="none" xmlns="http://www.w3.org/2000/svg">
<path id="Vector" d="M7.5 2.625V9.125C7.5 9.4464 7.59531 9.76057 7.77386 10.0278C7.95242 10.295 8.20621 10.5033 8.50314 10.6263C8.80007 10.7493 9.1268 10.7815 9.44202 10.7188C9.75724 10.6561 10.0468 10.5013 10.2741 10.2741C10.5013 10.0468 10.6561 9.75724 10.7188 9.44202C10.7815 9.1268 10.7493 8.80007 10.6263 8.50314C10.5033 8.20621 10.295 7.95242 10.0278 7.77386C9.76057 7.59531 9.4464 7.5 9.125 7.5H2.625C2.30361 7.5 1.98943 7.59531 1.7222 7.77386C1.45497 7.95242 1.24669 8.20621 1.1237 8.50314C1.0007 8.80007 0.968524 9.1268 1.03122 9.44202C1.09393 9.75724 1.24869 10.0468 1.47595 10.2741C1.70321 10.5013 1.99276 10.6561 2.30798 10.7188C2.6232 10.7815 2.94993 10.7493 3.24686 10.6263C3.54379 10.5033 3.79758 10.295 3.97614 10.0278C4.1547 9.76057 4.25 9.4464 4.25 9.125V2.625C4.25 2.30361 4.1547 1.98943 3.97614 1.7222C3.79758 1.45497 3.54379 1.24669 3.24686 1.1237C2.94993 1.0007 2.6232 0.968524 2.30798 1.03122C1.99276 1.09393 1.70321 1.24869 1.47595 1.47595C1.24869 1.70321 1.09393 1.99276 1.03122 2.30798C0.968524 2.6232 1.0007 2.94993 1.1237 3.24686C1.24669 3.54379 1.45497 3.79758 1.7222 3.97614C1.98943 4.1547 2.30361 4.25 2.625 4.25H9.125C9.4464 4.25 9.76057 4.1547 10.0278 3.97614C10.295 3.79758 10.5033 3.54379 10.6263 3.24686C10.7493 2.94993 10.7815 2.6232 10.7188 2.30798C10.6561 1.99276 10.5013 1.70321 10.2741 1.47595C10.0468 1.24869 9.75724 1.09393 9.44202 1.03122C9.1268 0.968524 8.80007 1.0007 8.50314 1.1237C8.20621 1.24669 7.95242 1.45497 7.77386 1.7222C7.59531 1.98943 7.5 2.30361 7.5 2.625Z" stroke="var(--stroke-0, #71717A)" stroke-linecap="round" stroke-linejoin="round"/>
</svg>
