<svg preserveAspectRatio="none" width="100%" height="100%" overflow="visible" style="display: block;" viewBox="0 0 26 28" fill="none" xmlns="http://www.w3.org/2000/svg">
<g id="Group 1">
<path id="logo-Bw3KQbEc 2" d="M19.3787 17.5484C19.612 17.6826 19.9031 17.5141 19.9031 17.245V10.4471C19.9031 10.323 19.8375 10.2083 19.7306 10.1454L13.1275 6.26035C12.8942 6.12307 12.6 6.2913 12.6 6.56201V13.4475C12.6 13.5728 12.667 13.6885 12.7755 13.7509L19.3787 17.5484Z" fill="var(--fill-0, #FF861A)"/>
<path id="logo-Bw3KQbEc 3" d="M24.0235 14.1452C24.2568 14.2794 24.548 14.1109 24.548 13.8417V10.2245C24.548 10.1005 24.4824 9.98575 24.3755 9.92285L20.8275 7.83537C20.5942 7.69809 20.3 7.86632 20.3 8.13705V11.8013C20.3 11.9266 20.367 12.0423 20.4756 12.1048L24.0235 14.1452Z" fill="var(--fill-0, #FEA352)"/>
<path id="logo-Bw3KQbEc 4" d="M24.0235 8.89517C24.2568 9.02937 24.548 8.86093 24.548 8.59175V4.97453C24.548 4.85051 24.4824 4.73575 24.3755 4.67285L20.8275 2.58537C20.5942 2.44808 20.3 2.61632 20.3 2.88705V6.55134C20.3 6.67661 20.367 6.79232 20.4756 6.85477L24.0235 8.89517Z" fill="var(--fill-0, #FCC08B)"/>
<path id="logo-Bw3KQbEc 5" d="M25.0255 4.73426C25.2588 4.86846 25.55 4.70002 25.55 4.43084V3.02485C25.55 2.90083 25.4843 2.78606 25.3775 2.72317L23.9535 1.88537C23.7202 1.74808 23.426 1.91632 23.426 2.18705V3.61193C23.426 3.73719 23.4929 3.85291 23.6015 3.91535L25.0255 4.73426Z" fill="var(--fill-0, #FF861A)"/>
<path id="logo-Bw3KQbEc 6" d="M25.0255 4.73426C25.2588 4.86846 25.55 4.70002 25.55 4.43084V3.02485C25.55 2.90083 25.4843 2.78606 25.3775 2.72317L23.9535 1.88537C23.7202 1.74808 23.426 1.91632 23.426 2.18705V3.61193C23.426 3.73719 23.4929 3.85291 23.6015 3.91535L25.0255 4.73426Z" fill="var(--fill-0, #FCCBA0)"/>
<path id="logo-Bw3KQbEc 7" d="M19.4735 9.24517C19.7068 9.37937 19.998 9.21093 19.998 8.94175V5.32453C19.998 5.20051 19.9324 5.08575 19.8255 5.02285L16.2775 2.93537C16.0442 2.79808 15.75 2.96632 15.75 3.23705V6.90134C15.75 7.02661 15.817 7.14232 15.9255 7.20477L19.4735 9.24517Z" fill="var(--fill-0, #FEA95C)"/>
<path id="Vector 3" d="M12.0764 14.5764L1.05205 20.8739C0.817957 21.0077 0.816585 21.3447 1.04958 21.4803L12.0739 27.8975C12.1828 27.9609 12.3173 27.9609 12.4261 27.8975L23.4505 21.4803C23.6835 21.3447 23.6821 21.0077 23.448 20.8739L12.4236 14.5764C12.316 14.515 12.184 14.515 12.0764 14.5764Z" fill="var(--fill-0, #4CB38E)"/>
<path id="Vector 2" d="M0.173511 6.74526L11.1985 0.307433C11.4318 0.171185 11.725 0.339482 11.725 0.609678V13.4488C11.725 13.5734 11.6588 13.6886 11.5511 13.7512L0.526074 20.1688C0.292743 20.3046 0 20.1363 0 19.8663V7.0475C0 6.92308 0.0660603 6.808 0.173511 6.74526Z" fill="var(--fill-0, #4CB38E)"/>
</g>
</svg>
